<svg xmlns="http://www.w3.org/2000/svg" viewBox="0 0 320 160" role="img" aria-label="Broken branches, churned soil, and tracks at dusk" shape-rendering="crispEdges">
  <rect width="320" height="160" fill="#101820"/>
  <rect y="12" width="320" height="20" fill="#17242b"/>
  <rect y="32" width="320" height="20" fill="#223037"/>
  <rect y="52" width="320" height="20" fill="#2d3a3d"/>
  <rect y="72" width="320" height="16" fill="#3b4340"/>

  <path fill="#10211f" d="M0 70h12V54h8V42h8v28h12V58h8V34h8v36h18V50h8V40h8v30h22V56h8V46h8v24h28V52h8V38h8v32h26V50h8V30h8v40h20V48h8V38h8v32h26V54h8V42h8v28h18v90H0z"/>
  <path fill="#182824" d="M0 88h320v72H0z"/>
  <path fill="#22302a" d="M0 104h320v56H0z"/>
  <path fill="#2f352d" d="M0 124h320v36H0z"/>

  <rect x="0" y="84" width="320" height="4" fill="#6d6550" opacity=".35"/>
  <rect x="28" y="96" width="56" height="4" fill="#344339"/>
  <rect x="238" y="92" width="58" height="4" fill="#344339"/>
  <rect x="18" y="112" width="44" height="4" fill="#3b4639"/>
  <rect x="254" y="112" width="48" height="4" fill="#3b4639"/>

  <path fill="#171c19" d="M88 106h16v6h12v6h18v8h20v10h26v12H92v-10H76v-8H64v-10h10v-8h14z"/>
  <path fill="#24271f" d="M124 104h18v8h20v10h18v12h28v14h-34v-10h-18v-8h-20v-8h-18v-10h6z"/>

  <g fill="#0b1110">
    <rect x="145" y="118" width="18" height="6"/>
    <rect x="151" y="112" width="6" height="6"/>
    <rect x="139" y="114" width="6" height="6"/>
    <rect x="158" y="108" width="6" height="6"/>
    <rect x="177" y="132" width="18" height="6"/>
    <rect x="183" y="126" width="6" height="6"/>
    <rect x="171" y="128" width="6" height="6"/>
    <rect x="190" y="122" width="6" height="6"/>
  </g>

  <g fill="#776b50">
    <rect x="46" y="96" width="38" height="4"/>
    <rect x="72" y="92" width="4" height="8"/>
    <rect x="62" y="88" width="4" height="8"/>
    <rect x="232" y="100" width="44" height="4"/>
    <rect x="244" y="96" width="4" height="8"/>
    <rect x="262" y="92" width="4" height="8"/>
  </g>

  <g fill="#8b7756">
    <rect x="104" y="94" width="6" height="28"/>
    <rect x="110" y="96" width="18" height="4"/>
    <rect x="122" y="90" width="4" height="10"/>
    <rect x="214" y="96" width="6" height="30"/>
    <rect x="196" y="100" width="18" height="4"/>
    <rect x="200" y="94" width="4" height="10"/>
  </g>

  <g fill="#4b4639">
    <rect x="24" y="136" width="58" height="6"/>
    <rect x="232" y="140" width="64" height="6"/>
    <rect x="8" y="150" width="92" height="10"/>
    <rect x="220" y="150" width="100" height="10"/>
  </g>

  <g fill="#91866b" opacity=".55">
    <rect x="116" y="84" width="28" height="2"/>
    <rect x="172" y="88" width="34" height="2"/>
    <rect x="132" y="76" width="12" height="2"/>
    <rect x="188" y="78" width="14" height="2"/>
  </g>
</svg>
